<svg width="177" height="40" viewBox="0 0 177 40" fill="none" xmlns="http://www.w3.org/2000/svg"><path d="M49.8 29V8.6H54V17h8.7V8.6h4.3V29h-4.3v-8.4h-8.7V29h-4.3ZM75 8.6V29h-4.3V8.6H75Zm7.2 0 5 15.5h.1l5-15.5H97L90 29h-5.6l-7-20.4h4.8ZM99.5 29V8.6h13.7v3.6h-9.4V17h8.7v3.6h-8.7v4.9h9.4V29H99.5Zm17.1 0V8.6h8.2c1.5 0 2.7.3 3.7.7a5 5 0 0 1 2.3 1.9c.5.7.7 1.6.7 2.7 0 .8-.1 1.5-.5 2-.3.7-.7 1.1-1.3 1.5-.5.4-1.2.7-1.9.8v.2c.8 0 1.5.3 2.2.7.7.4 1.2 1 1.7 1.7.4.7.6 1.6.6 2.6s-.3 2-.8 2.9c-.5.8-1.3 1.5-2.4 2a9 9 0 0 1-3.8.7h-8.7Zm4.3-3.5h3.5c1.2 0 2-.2 2.6-.7.6-.5.9-1 .9-1.9 0-.5-.2-1-.4-1.4-.3-.5-.7-.8-1.2-1a4 4 0 0 0-1.8-.4H121v5.4Zm0-8.3h3.2c.6 0 1.1-.1 1.6-.4.4-.2.8-.5 1-.8.3-.4.5-.9.5-1.4 0-.8-.3-1.4-.8-1.8-.5-.5-1.3-.7-2.2-.7h-3.3v5Zm18.5-8.6V29h-4.3V8.6h4.3ZM143 29V8.6h4.3v16.9h8.7V29h-13Zm15.8 0V8.6h4.3v16.9h8.8V29h-13Z" fill="black"/><path d="M33.7 14c-2.3 0-4.5 1-6 2.5A11.5 11.5 0 1 0 16.6 31h17c4.8 0 8.6-3.8 8.6-8.5S38.4 14 33.7 14Zm-22.3 5.8c3 2.9 7.7 2.9 10.6 0l1.3 1.3a9.4 9.4 0 0 1-13.2 0l1.3-1.3Z" fill="black"/></svg>